HIERARCHY
ROOT hip
{
  OFFSET 0 0 0
  CHANNELS 6 Xposition Yposition Zposition Zrotation Yrotation Xrotation
  JOINT abdomen
  {
    OFFSET 0 20.6881 -0.73152
    CHANNELS 3 Zrotation Xrotation Yrotation
    JOINT chest
    {
      OFFSET 0 11.7043 -0.48768
      CHANNELS 3 Zrotation Xrotation Yrotation
      JOINT neck
      {
        OFFSET 0 22.1894 -2.19456
        CHANNELS 3 Zrotation Xrotation Yrotation
        JOINT head
        {
          OFFSET -0.24384 7.07133 1.2192
          CHANNELS 3 Zrotation Xrotation Yrotation
          JOINT leftEye
          {
            OFFSET 4.14528 8.04674 8.04672
            CHANNELS 3 Zrotation Xrotation Yrotation
            End Site
            {
              OFFSET 1 0 0
            }
          }
          JOINT rightEye
          {
            OFFSET -3.6576 8.04674 8.04672
            CHANNELS 3 Zrotation Xrotation Yrotation
            End Site
            {
              OFFSET 1 0 0
            }
          }
        }
      }
      JOINT rCollar
      {
        OFFSET -2.68224 19.2634 -4.8768
        CHANNELS 3 Zrotation Xrotation Yrotation
        JOINT rShldr
        {
          OFFSET -8.77824 -1.95073 1.46304
          CHANNELS 3 Zrotation Xrotation Yrotation
          JOINT rForeArm
          {
            OFFSET -28.1742 -1.7115 0.48768
            CHANNELS 3 Zrotation Xrotation Yrotation
            JOINT rHand
            {
              OFFSET -22.5879 0.773209 7.07136
              CHANNELS 3 Zrotation Xrotation Yrotation
              JOINT rThumb1
              {
                OFFSET -1.2192 -0.487915 3.41376
                CHANNELS 3 Zrotation Xrotation Yrotation
                JOINT rThumb2
                {
                  OFFSET -3.37035 -0.52449 3.41376
                  CHANNELS 3 Zrotation Xrotation Yrotation
                  End Site
                  {
                    OFFSET -1.78271 -1.18214 1.43049
                  }
                }
              }
              JOINT rIndex1
              {
                OFFSET -7.75947 0.938293 5.60832
                CHANNELS 3 Zrotation Xrotation Yrotation
                JOINT rIndex2
                {
                  OFFSET -2.54057 -0.884171 1.56538
                  CHANNELS 3 Zrotation Xrotation Yrotation
                  End Site
                  {
                    OFFSET -1.62519 -0.234802 1.16502
                  }
                }
              }
              JOINT rMid1
              {
                OFFSET -8.24714 1.18213 3.41376
                CHANNELS 3 Zrotation Xrotation Yrotation
                JOINT rMid2
                {
                  OFFSET -3.10165 -0.590103 1.0647
                  CHANNELS 3 Zrotation Xrotation Yrotation
                  End Site
                  {
                    OFFSET -2.48547 -0.328903 0.83742
                  }
                }
              }
              JOINT rRing1
              {
                OFFSET -8.82822 0.546677 1.51678
                CHANNELS 3 Zrotation Xrotation Yrotation
                JOINT rRing2
                {
                  OFFSET -2.60934 -0.819778 -0.0198488
                  CHANNELS 3 Zrotation Xrotation Yrotation
                  End Site
                  {
                    OFFSET -2.33842 -0.294052 0.168128
                  }
                }
              }
              JOINT rPinky1
              {
                OFFSET -8.27202 -0.0477905 -0.4584
                CHANNELS 3 Zrotation Xrotation Yrotation
                JOINT rPinky2
                {
                  OFFSET -1.82734 -0.647385 -0.700984
                  CHANNELS 3 Zrotation Xrotation Yrotation
                  End Site
                  {
                    OFFSET -1.69225 -0.51767 -0.607171
                  }
                }
              }
            }
          }
        }
      }
      JOINT lCollar
      {
        OFFSET 2.68224 19.2634 -4.8768
        CHANNELS 3 Zrotation Xrotation Yrotation
        JOINT lShldr
        {
          OFFSET 8.77824 -1.95073 1.46304
          CHANNELS 3 Zrotation Xrotation Yrotation
          JOINT lForeArm
          {
            OFFSET 28.1742 -1.7115 0.48768
            CHANNELS 3 Zrotation Xrotation Yrotation
            JOINT lHand
            {
              OFFSET 22.5879 0.773209 7.07136
              CHANNELS 3 Zrotation Xrotation Yrotation
              JOINT lThumb1
              {
                OFFSET 1.2192 -0.487915 3.41376
                CHANNELS 3 Zrotation Xrotation Yrotation
                JOINT lThumb2
                {
                  OFFSET 3.37035 -0.52449 3.41376
                  CHANNELS 3 Zrotation Xrotation Yrotation
                  End Site
                  {
                    OFFSET 1.78271 -1.18214 1.43049
                  }
                }
              }
              JOINT lIndex1
              {
                OFFSET 7.75947 0.938293 5.60832
                CHANNELS 3 Zrotation Xrotation Yrotation
                JOINT lIndex2
                {
                  OFFSET 2.54057 -0.884171 1.56538
                  CHANNELS 3 Zrotation Xrotation Yrotation
                  End Site
                  {
                    OFFSET 1.62519 -0.234802 1.16502
                  }
                }
              }
              JOINT lMid1
              {
                OFFSET 8.24714 1.18213 3.41376
                CHANNELS 3 Zrotation Xrotation Yrotation
                JOINT lMid2
                {
                  OFFSET 3.10165 -0.590103 1.0647
                  CHANNELS 3 Zrotation Xrotation Yrotation
                  End Site
                  {
                    OFFSET 2.48547 -0.328903 0.83742
                  }
                }
              }
              JOINT lRing1
              {
                OFFSET 8.82822 0.546677 1.51678
                CHANNELS 3 Zrotation Xrotation Yrotation
                JOINT lRing2
                {
                  OFFSET 2.60934 -0.819778 -0.0198488
                  CHANNELS 3 Zrotation Xrotation Yrotation
                  End Site
                  {
                    OFFSET 2.33842 -0.294052 0.168128
                  }
                }
              }
              JOINT lPinky1
              {
                OFFSET 8.27202 -0.0477905 -0.4584
                CHANNELS 3 Zrotation Xrotation Yrotation
                JOINT lPinky2
                {
                  OFFSET 1.82734 -0.647385 -0.700984
                  CHANNELS 3 Zrotation Xrotation Yrotation
                  End Site
                  {
                    OFFSET 1.69225 -0.51767 -0.607171
                  }
                }
              }
            }
          }
        }
      }
    }
  }
  JOINT rButtock
  {
    OFFSET -8.77824 4.35084 1.2192
    CHANNELS 3 Zrotation Xrotation Yrotation
    JOINT rThigh
    {
      OFFSET 0 -1.70687 -2.19456
      CHANNELS 3 Zrotation Xrotation Yrotation
      JOINT rShin
      {
        OFFSET 0 -36.8199 0.73152
        CHANNELS 3 Zrotation Xrotation Yrotation
        JOINT rFoot
        {
          OFFSET 0.73152 -45.1104 -5.12064
          CHANNELS 3 Zrotation Xrotation Yrotation
          End Site
          {
            OFFSET -1.1221 -3.69964 12.103
          }
        }
      }
    }
  }
  JOINT lButtock
  {
    OFFSET 8.77824 4.35084 1.2192
    CHANNELS 3 Zrotation Xrotation Yrotation
    JOINT lThigh
    {
      OFFSET 0 -1.70687 -2.19456
      CHANNELS 3 Zrotation Xrotation Yrotation
      JOINT lShin
      {
        OFFSET 0 -36.8199 0.73152
        CHANNELS 3 Zrotation Xrotation Yrotation
        JOINT lFoot
        {
          OFFSET -0.73152 -45.1104 -5.12064
          CHANNELS 3 Zrotation Xrotation Yrotation
          End Site
          {
            OFFSET 1.1221 -3.69964 12.103
          }
        }
      }
    }
  }
}
MOTION
Frames:	4
Frame Time:	0.03333
0.32149999244026206 68.2795023400282 -0.8279999807794036 0.653019368648529 -10.226004600524902 6.184983730316162 -10.749298095703125 17.960500717163086 8.186549186706543 2.2386701107025146 -12.637702941894531 2.263929843902588 -1.4025299549102783 14.92449951171875 10.745099067687988 3.626530170440674 -31.1942081451416 22.565399169921875 -0.0 0.0 -0.0 -0.0 0.0 -0.0 1.1888099283197812e-13 -1.6380199605557644e-13 -7.215879776296605e-14 35.97279357910156 -6.652889251708984 22.044498443603516 -28.346195220947266 -33.425899505615234 72.76089477539062 -2.572739839553833 40.66749954223633 6.935130596160889 -2.467939852479617e-09 6.377990136030576e-09 9.93856996700515e-10 -4.231179850933131e-09 1.115339909318891e-08 1.7893199144580763e-09 -2.4679300825170003e-09 6.377969707926923e-09 9.93844007091127e-10 7.730909824371338 5.474879741668701 0.4173140823841095 -2.467939852479617e-09 6.377969707926923e-09 9.938498912731575e-10 2.9055399894714355 0.9651829600334167 0.10290199518203735 -2.4679300825170003e-09 6.377990136030576e-09 9.93852888875324e-10 10.27859878540039 0.73180091381073 0.025912316516041756 -2.467939852479617e-09 6.377990136030576e-09 9.93852888875324e-10 2.221669912338257 -0.733487069606781 -0.208919957280159 1.1877399563008095e-13 -1.6379600583857346e-13 -7.235759978381842e-14 41.02440643310547 66.14060974121094 -114.89599609375 27.852401733398438 -41.12999725341797 -85.97149658203125 77.33209991455078 -81.97321319580078 85.28620147705078 1.2800799309431454e-09 5.866310215374426e-10 -6.836599342197047e-11 2.186320013919385e-09 1.074279998292127e-09 -3.8189697931789723e-11 1.2800799309431454e-09 5.866289676248471e-10 -6.835969290630572e-11 -7.730909824371338 5.474879741668701 -0.4173140823841095 1.2800799309431454e-09 5.866310215374426e-10 -6.836599342197047e-11 -2.9055399894714355 0.9651829600334167 -0.10290199518203735 1.2800799309431454e-09 5.866310215374426e-10 -6.837079513655198e-11 -10.27859878540039 0.73180091381073 -0.025912316516041756 1.280089922950367e-09 5.866329644277357e-10 -6.837869853670853e-11 -2.221669912338257 -0.733487069606781 0.208919957280159 -2.0321699480147914e-16 0.0 -3.8825099822884138e-19 -53.05739974975586 -66.57670593261719 -61.816097259521484 -2.7972099781036377 74.3042984008789 3.4388396739959717 -1.447549819946289 1.4230998754501343 -10.403599739074707 2.0321699480147914e-16 0.0 3.8825099822884138e-19 -10.623100280761719 -42.80690002441406 4.157701015472412 2.969069719314575 77.1758041381836 -4.899929523468018 18.04150390625 -20.562002182006836 31.332502365112305
0.5538999803947227 67.99740186692834 -1.5690000001189468 0.26102113723754883 -13.093002319335938 6.719978332519531 -10.271299362182617 17.6549015045166 8.648409843444824 1.6947301626205444 -12.612800598144531 2.362950086593628 -1.289660096168518 14.87080192565918 11.085299491882324 3.2726101875305176 -31.043598175048828 23.13490104675293 -0.0 0.0 -0.0 -0.0 0.0 -0.0 9.145539414754517e-14 -1.0555799127582449e-13 -1.4987699124315024e-13 35.83339309692383 -6.703511714935303 21.85340118408203 -28.3627986907959 -33.65270233154297 73.13119506835938 -2.583350419998169 40.73150634765625 6.951120376586914 -1.307859931465316e-09 3.0252100824412764e-09 3.7465497371158563e-10 -2.246220098811591e-09 5.3055502213794625e-09 6.845459754600824e-10 -1.3078499394580945e-09 3.02519986838945e-09 3.746369880985867e-10 7.730909824371338 5.474879741668701 0.4173140823841095 -1.307859931465316e-09 3.0251896543376233e-09 3.746529753101413e-10 2.9055399894714355 0.9651829600334167 0.10290199518203735 -1.307859931465316e-09 3.02519986838945e-09 3.74650976908697e-10 10.27859878540039 0.73180091381073 0.025912316516041756 -1.3078700344948402e-09 3.02519986838945e-09 3.746589982700499e-10 2.221669912338257 -0.733487069606781 -0.208919957280159 9.135490215868292e-14 -1.0555200105882151e-13 -1.5008198676891293e-13 41.75369644165039 65.42920684814453 -115.91999816894531 27.89299774169922 -40.9474983215332 -85.63439178466797 77.2533950805664 -81.97189331054688 85.20670318603516 8.937470208358889e-10 3.4182798258619584e-10 -3.2053198983916786e-10 1.5460199787042939e-09 6.28990026729781e-10 -4.86845008751402e-10 8.937419693211268e-10 3.418269833854737e-10 -3.205209986312241e-10 -7.730909824371338 5.474879741668701 -0.4173140823841095 8.937289797117387e-10 3.418179905789742e-10 -3.2054400800340943e-10 -2.9055399894714355 0.9651829600334167 -0.10290199518203735 8.937439677225711e-10 3.418239857833072e-10 -3.2053498744133435e-10 -10.27859878540039 0.73180091381073 -0.025912316516041756 8.937519613283484e-10 3.4182798258619584e-10 -3.205400112005208e-10 -2.221669912338257 -0.733487069606781 0.208919957280159 -2.0321699480147914e-16 0.0 -3.8825099822884138e-19 -57.54610061645508 -66.7936019897461 -63.64619827270508 -4.181109428405762 78.46109771728516 4.805299758911133 -1.5708800554275513 3.3776702880859375 -12.65510082244873 2.0321699480147914e-16 0.0 3.8825099822884138e-19 -11.052699089050293 -43.61640548706055 3.3962697982788086 3.0229196548461914 77.36991119384766 -4.9687395095825195 18.038698196411133 -21.463504791259766 30.843996047973633
0.7519999856369958 67.88520234943255 -2.3089999837144646 -0.23900336027145386 -15.85200309753418 7.20098876953125 -9.664778709411621 17.373502731323242 9.000320434570312 1.2431399822235107 -12.571399688720703 2.441269636154175 -1.2052401304244995 14.838398933410645 11.36520004272461 2.942970037460327 -30.91699981689453 23.592693328857422 -0.0 0.0 -0.0 -0.0 0.0 -0.0 6.067189258591663e-14 -6.202429249455715e-14 -2.448030114125116e-13 35.749698638916016 -6.880550384521484 21.4534969329834 -28.377399444580078 -33.876407623291016 73.49760437011719 -2.5551302433013916 40.557403564453125 6.908079624176025 -2.764249940057084e-10 3.9770897686253193e-10 -4.989650012610092e-11 -4.775169704096527e-10 7.017099123984849e-10 -8.09593919681717e-11 -2.764219964035419e-10 3.9770897686253193e-10 -4.991559596212447e-11 7.730909824371338 5.474879741668701 0.4173140823841095 -2.764259932064306e-10 3.9770400861449673e-10 -4.989339497107892e-11 2.9055399894714355 0.9651829600334167 0.10290199518203735 -2.764219964035419e-10 3.9769798565458814e-10 -4.989890098339167e-11 10.27859878540039 0.73180091381073 0.025912316516041756 -2.7643001776489484e-10 3.9770400861449673e-10 -4.988380195025677e-11 2.221669912338257 -0.733487069606781 -0.208919957280159 6.059069261946104e-14 -6.201749590218839e-14 -2.45001989616217e-13 42.62509536743164 64.7145004272461 -117.14999389648438 27.9324951171875 -40.75579833984375 -85.28699493408203 75.1238021850586 -81.94170379638672 83.05589294433594 4.990429736118074e-10 1.0873399403088513e-10 -3.7458999790906944e-10 8.784089566837849e-10 2.064939885748629e-10 -6.014809761367701e-10 4.990359792067522e-10 1.0873399403088513e-10 -3.745739829419392e-10 -7.730909824371338 5.474879741668701 -0.4173140823841095 4.990060031850874e-10 1.0871499533937623e-10 -3.74611980324957e-10 -2.9055399894714355 0.9651829600334167 -0.10290199518203735 4.9903903232007e-10 1.0872699268693609e-10 -3.745889987083473e-10 -10.27859878540039 0.73180091381073 -0.025912316516041756 4.990470259258473e-10 1.0873099642871864e-10 -3.7459299551123593e-10 -2.221669912338257 -0.733487069606781 0.208919957280159 -2.0321699480147914e-16 0.0 -3.8825099822884138e-19 -61.460994720458984 -66.55081176757812 -64.74299621582031 -5.9393391609191895 81.34982299804688 6.516528606414795 -1.6548597812652588 5.125740051269531 -15.962299346923828 2.0321699480147914e-16 0.0 3.8825099822884138e-19 -11.285898208618164 -44.426597595214844 2.6229820251464844 3.057310104370117 77.47322082519531 -5.003909587860107 17.940998077392578 -22.35940170288086 30.22509765625
0.8949999877309165 67.88779782131715 -3.0249999632270272 -0.707007884979248 -18.363998413085938 7.791989326477051 -8.9975004196167 16.99880027770996 9.417598724365234 0.8233349323272705 -12.405801773071289 2.5359597206115723 -1.1351099014282227 14.831101417541504 11.63219928741455 2.5995097160339355 -30.766897201538086 24.016597747802734 -0.0 0.0 -0.0 -0.0 0.0 -0.0 8.216620065544175e-14 -1.573429971382656e-13 -3.762559925082898e-13 35.83949661254883 -7.127220630645752 20.9148006439209 -28.3898983001709 -34.09260177612305 73.85189819335938 -2.542220115661621 40.476295471191406 6.888209819793701 -2.1355697210623248e-09 5.857689888699724e-09 8.801379625111849e-10 -3.6578600148828855e-09 1.0162500174715206e-08 1.5785700524517665e-09 -2.1355697210623248e-09 5.857689888699724e-09 8.801249729017968e-10 7.730909824371338 5.474879741668701 0.4173140823841095 -2.1355697210623248e-09 5.857689888699724e-09 8.801379625111849e-10 2.9055399894714355 0.9651829600334167 0.10290199518203735 -2.135559951099708e-09 5.857689888699724e-09 8.801389617119071e-10 10.27859878540039 0.73180091381073 0.025912316516041756 -2.1355799351141513e-09 5.857689888699724e-09 8.801510076317243e-10 2.221669912338257 -0.733487069606781 -0.208919957280159 8.208499391272259e-14 -1.5733398470770682e-13 -3.7643298851294804e-13 43.376495361328125 64.14260864257812 -118.23300170898438 27.955598831176758 -40.6416015625 -85.07990264892578 74.82929992675781 -81.93651580810547 82.75839233398438 5.800940283684497e-10 1.3918100005838596e-10 6.950959807738855e-10 9.416829538366756e-10 2.725769610023576e-10 1.2132598259384508e-09 5.800889768536877e-10 1.3918599606199678e-10 6.951089148721223e-10 -7.730909824371338 5.474879741668701 -0.4173140823841095 5.800749325324261e-10 1.3917499097626518e-10 6.950829911644973e-10 -2.9055399894714355 0.9651829600334167 -0.10290199518203735 5.800869784522433e-10 1.3918199925910812e-10 6.950969799746076e-10 -10.27859878540039 0.73180091381073 -0.025912316516041756 5.800959712587428e-10 1.3918399766055245e-10 6.950889863688303e-10 -2.221669912338257 -0.733487069606781 0.208919957280159 -2.0321699480147914e-16 0.0 -3.8825099822884138e-19 -63.9884033203125 -65.86409759521484 -64.4103012084961 -7.183309555053711 82.59811401367188 7.695248603820801 -1.7601498365402222 5.839751243591309 -17.702199935913086 2.0321699480147914e-16 0.0 3.8825099822884138e-19 -11.299300193786621 -45.17409896850586 1.9558097124099731 3.0641298294067383 77.45468139648438 -4.984940052032471 17.662900924682617 -23.155702590942383 29.389699935913086
